# xmcd CD database file
#
# Track frame offsets:
#	151
#	21148
#	44846
#	65093
#	91650
#	112351
#	134168
#	150376
#	170472
#	197700
#	224095
#
# Disc length: 3231 seconds
#
# Revision: 0
# Processed by: cddbd v1.5.2PL0 Copyright (c) Steve Scherf et al.
# Submitted via: CDex 1.70beta2
#
DISCID=ab0c9d0b
DTITLE=Bonny B. - Cambodia
DYEAR=2000
DGENRE=Blues
TTITLE0=Cambodia
TTITLE1=Live a little
TTITLE2=Ashamed
TTITLE3=How many times
TTITLE4=I don't smoke
TTITLE5=Little angel
TTITLE6=Midnight blues
TTITLE7=The story
TTITLE8=Something's wrong
TTITLE9=Slowly darling
TTITLE10=Poor boy blues
EXTD=YEAR: 2000
EXTT0=
EXTT1=
EXTT2=
EXTT3=
EXTT4=
EXTT5=
EXTT6=
EXTT7=
EXTT8=
EXTT9=
EXTT10=
PLAYORDER=
